<mxfile host="65bd71144e">
    <diagram id="cnvPb1EUdL7T6ywoHGBr" name="Страница 1">
        <mxGraphModel dx="3095" dy="1520" grid="1" gridSize="10" guides="1" tooltips="1" connect="1" arrows="1" fold="1" page="1" pageScale="1" pageWidth="827" pageHeight="1169" background="#ffffff" math="0" shadow="0">
            <root>
                <mxCell id="0"/>
                <mxCell id="1" parent="0"/>
                <mxCell id="150" value="" style="rounded=0;whiteSpace=wrap;html=1;fontSize=12;fontColor=#D2C5CD;" parent="1" vertex="1">
                    <mxGeometry x="1220" y="280" width="2050" height="840" as="geometry"/>
                </mxCell>
                <mxCell id="130" value="" style="shape=ext;double=1;rounded=0;whiteSpace=wrap;html=1;strokeColor=#030303;" parent="1" vertex="1">
                    <mxGeometry x="-500" y="270" width="1700" height="2080" as="geometry"/>
                </mxCell>
                <mxCell id="126" value="" style="edgeStyle=none;html=1;" parent="1" source="2" target="125" edge="1">
                    <mxGeometry relative="1" as="geometry"/>
                </mxCell>
                <mxCell id="2" value="Начало" style="rounded=1;whiteSpace=wrap;html=1;fillColor=#008a00;fontColor=#ffffff;strokeColor=#005700;" parent="1" vertex="1">
                    <mxGeometry x="360" y="40" width="120" height="60" as="geometry"/>
                </mxCell>
                <mxCell id="33" value="" style="edgeStyle=none;html=1;" parent="1" source="5" target="32" edge="1">
                    <mxGeometry relative="1" as="geometry"/>
                </mxCell>
                <mxCell id="5" value="string userArray = new string[1000]&lt;br&gt;&lt;span&gt;int N = 1&lt;br&gt;&lt;/span&gt;&lt;span&gt;int total = 0&lt;br&gt;&lt;/span&gt;&lt;span&gt;int count = 0&lt;/span&gt;&lt;span&gt;&lt;br&gt;&lt;/span&gt;" style="rounded=0;whiteSpace=wrap;html=1;" parent="1" vertex="1">
                    <mxGeometry x="285" y="270" width="270" height="109" as="geometry"/>
                </mxCell>
                <mxCell id="15" value="No" style="edgeStyle=none;html=1;entryX=0;entryY=0.5;entryDx=0;entryDy=0;" parent="1" target="43" edge="1">
                    <mxGeometry relative="1" as="geometry">
                        <mxPoint x="625" y="932.9999999999998" as="sourcePoint"/>
                        <mxPoint x="690" y="932.9999999999998" as="targetPoint"/>
                    </mxGeometry>
                </mxCell>
                <mxCell id="23" value="Yes" style="edgeStyle=none;html=1;" parent="1" source="10" target="22" edge="1">
                    <mxGeometry relative="1" as="geometry"/>
                </mxCell>
                <mxCell id="25" value="" style="edgeStyle=none;html=1;" parent="1" source="10" target="24" edge="1">
                    <mxGeometry relative="1" as="geometry"/>
                </mxCell>
                <mxCell id="26" value="No" style="edgeLabel;html=1;align=center;verticalAlign=middle;resizable=0;points=[];" parent="25" vertex="1" connectable="0">
                    <mxGeometry x="-0.3322" y="2" relative="1" as="geometry">
                        <mxPoint as="offset"/>
                    </mxGeometry>
                </mxCell>
                <mxCell id="10" value="userArray[0] = null" style="rhombus;whiteSpace=wrap;html=1;" parent="1" vertex="1">
                    <mxGeometry x="210" y="1003" width="130" height="130" as="geometry"/>
                </mxCell>
                <mxCell id="16" value="" style="endArrow=classic;html=1;exitX=0.5;exitY=0;exitDx=0;exitDy=0;startArrow=none;" parent="1" source="32" edge="1">
                    <mxGeometry width="50" height="50" relative="1" as="geometry">
                        <mxPoint x="670" y="644" as="sourcePoint"/>
                        <mxPoint x="420" y="459" as="targetPoint"/>
                        <Array as="points"/>
                    </mxGeometry>
                </mxCell>
                <mxCell id="28" value="Yes" style="edgeStyle=none;html=1;" parent="1" source="17" edge="1">
                    <mxGeometry relative="1" as="geometry">
                        <mxPoint x="510" y="696.8299999999997" as="targetPoint"/>
                    </mxGeometry>
                </mxCell>
                <mxCell id="17" value="i &amp;lt; 1000" style="rhombus;whiteSpace=wrap;html=1;" parent="1" vertex="1">
                    <mxGeometry x="380" y="656.8299999999999" width="80" height="80" as="geometry"/>
                </mxCell>
                <mxCell id="22" value="print (&quot;Вы ничего не ввели, поэтому ответа нет&quot;)" style="shape=document;whiteSpace=wrap;html=1;boundedLbl=1;fillColor=#0050ef;fontColor=#ffffff;strokeColor=#001DBC;" parent="1" vertex="1">
                    <mxGeometry x="420" y="1028" width="230" height="80" as="geometry"/>
                </mxCell>
                <mxCell id="58" value="" style="edgeStyle=none;html=1;" parent="1" source="24" target="120" edge="1">
                    <mxGeometry relative="1" as="geometry">
                        <mxPoint x="55" y="1140" as="targetPoint"/>
                    </mxGeometry>
                </mxCell>
                <mxCell id="24" value="&lt;span&gt;print (&quot;Спасибо! Вы ввели значения -&amp;gt; [&lt;/span&gt;&lt;span&gt;&quot;)&lt;/span&gt;" style="shape=document;whiteSpace=wrap;html=1;boundedLbl=1;" parent="1" vertex="1">
                    <mxGeometry x="-40" y="1028" width="190" height="80" as="geometry"/>
                </mxCell>
                <mxCell id="123" value="" style="edgeStyle=none;html=1;" parent="1" source="32" target="122" edge="1">
                    <mxGeometry relative="1" as="geometry"/>
                </mxCell>
                <mxCell id="32" value="print(&quot;Вводите значения через Enter. Оставьте поле пустым и нажмите Enter - это остановит ввод значений.&quot;)" style="shape=document;whiteSpace=wrap;html=1;boundedLbl=1;" parent="1" vertex="1">
                    <mxGeometry x="245" y="410" width="350" height="80" as="geometry"/>
                </mxCell>
                <mxCell id="38" value="userString = &quot;&quot;" style="rhombus;whiteSpace=wrap;html=1;" parent="1" vertex="1">
                    <mxGeometry x="555" y="879.9999999999999" width="100" height="106" as="geometry"/>
                </mxCell>
                <mxCell id="43" value="userArray[i] = userString&lt;br&gt;i++&lt;br&gt;N++" style="rounded=0;whiteSpace=wrap;html=1;" parent="1" vertex="1">
                    <mxGeometry x="720" y="903" width="190" height="60" as="geometry"/>
                </mxCell>
                <mxCell id="44" value="No" style="edgeStyle=none;html=1;exitX=0;exitY=0.5;exitDx=0;exitDy=0;entryX=0.5;entryY=0;entryDx=0;entryDy=0;" parent="1" target="10" edge="1">
                    <mxGeometry x="-0.7647" relative="1" as="geometry">
                        <mxPoint x="380" y="696.8299999999999" as="sourcePoint"/>
                        <mxPoint x="275" y="1028" as="targetPoint"/>
                        <Array as="points">
                            <mxPoint x="275" y="696.8299999999999"/>
                        </Array>
                        <mxPoint x="1" as="offset"/>
                    </mxGeometry>
                </mxCell>
                <mxCell id="45" value="Yes" style="edgeStyle=none;html=1;" parent="1" edge="1">
                    <mxGeometry relative="1" as="geometry">
                        <mxPoint x="460" y="696.8299999999999" as="sourcePoint"/>
                        <mxPoint x="510" y="696.8299999999999" as="targetPoint"/>
                    </mxGeometry>
                </mxCell>
                <mxCell id="49" value="" style="endArrow=classic;html=1;exitX=0.5;exitY=0;exitDx=0;exitDy=0;" parent="1" source="43" edge="1">
                    <mxGeometry width="50" height="50" relative="1" as="geometry">
                        <mxPoint x="490" y="800" as="sourcePoint"/>
                        <mxPoint x="430" y="630" as="targetPoint"/>
                        <Array as="points">
                            <mxPoint x="815" y="630"/>
                        </Array>
                    </mxGeometry>
                </mxCell>
                <mxCell id="54" value="" style="edgeStyle=none;html=1;" parent="1" source="51" target="53" edge="1">
                    <mxGeometry relative="1" as="geometry"/>
                </mxCell>
                <mxCell id="51" value="print(&quot;Введите строку №N:&quot;)" style="shape=document;whiteSpace=wrap;html=1;boundedLbl=1;" parent="1" vertex="1">
                    <mxGeometry x="515" y="660" width="185" height="80" as="geometry"/>
                </mxCell>
                <mxCell id="55" value="" style="edgeStyle=none;html=1;" parent="1" source="53" target="38" edge="1">
                    <mxGeometry relative="1" as="geometry"/>
                </mxCell>
                <mxCell id="53" value="Ввод &lt;br&gt;string userString" style="shape=parallelogram;perimeter=parallelogramPerimeter;whiteSpace=wrap;html=1;fixedSize=1;" parent="1" vertex="1">
                    <mxGeometry x="547.5" y="780" width="120" height="60" as="geometry"/>
                </mxCell>
                <mxCell id="56" value="Yes" style="endArrow=classic;html=1;exitX=0;exitY=0.5;exitDx=0;exitDy=0;" parent="1" source="38" edge="1">
                    <mxGeometry width="50" height="50" relative="1" as="geometry">
                        <mxPoint x="550" y="930" as="sourcePoint"/>
                        <mxPoint x="280" y="933" as="targetPoint"/>
                    </mxGeometry>
                </mxCell>
                <mxCell id="60" value="Yes" style="edgeStyle=none;html=1;" parent="1" source="57" edge="1">
                    <mxGeometry x="-0.5679" relative="1" as="geometry">
                        <mxPoint x="-97" y="1370" as="targetPoint"/>
                        <Array as="points">
                            <mxPoint x="-97" y="1290"/>
                        </Array>
                        <mxPoint as="offset"/>
                    </mxGeometry>
                </mxCell>
                <mxCell id="57" value="index &amp;lt; N - 2" style="rhombus;whiteSpace=wrap;html=1;" parent="1" vertex="1">
                    <mxGeometry x="-15" y="1220" width="140" height="140" as="geometry"/>
                </mxCell>
                <mxCell id="63" value="Yes" style="edgeStyle=none;html=1;entryX=0.5;entryY=0;entryDx=0;entryDy=0;" parent="1" source="59" target="68" edge="1">
                    <mxGeometry x="-0.4832" relative="1" as="geometry">
                        <mxPoint x="-290.5603448275863" y="1670.689655172414" as="targetPoint"/>
                        <Array as="points">
                            <mxPoint x="-290" y="1590"/>
                        </Array>
                        <mxPoint as="offset"/>
                    </mxGeometry>
                </mxCell>
                <mxCell id="59" value="userArray[index].Length &amp;lt;= 3" style="rhombus;whiteSpace=wrap;html=1;" parent="1" vertex="1">
                    <mxGeometry x="-200" y="1490" width="205" height="205" as="geometry"/>
                </mxCell>
                <mxCell id="67" value="" style="edgeStyle=none;html=1;" parent="1" source="66" target="59" edge="1">
                    <mxGeometry relative="1" as="geometry"/>
                </mxCell>
                <mxCell id="66" value="print(&quot;userArray[index]&quot;,&amp;nbsp;)" style="shape=document;whiteSpace=wrap;html=1;boundedLbl=1;" parent="1" vertex="1">
                    <mxGeometry x="-191.25" y="1370" width="187.5" height="80" as="geometry"/>
                </mxCell>
                <mxCell id="72" value="" style="edgeStyle=none;html=1;exitX=0;exitY=0.5;exitDx=0;exitDy=0;" parent="1" source="68" target="71" edge="1">
                    <mxGeometry relative="1" as="geometry">
                        <Array as="points">
                            <mxPoint x="-390" y="1660"/>
                        </Array>
                    </mxGeometry>
                </mxCell>
                <mxCell id="68" value="total++" style="rounded=0;whiteSpace=wrap;html=1;" parent="1" vertex="1">
                    <mxGeometry x="-350" y="1630" width="120" height="60" as="geometry"/>
                </mxCell>
                <mxCell id="70" value="No" style="endArrow=classic;html=1;exitX=1;exitY=0.5;exitDx=0;exitDy=0;" parent="1" source="59" edge="1">
                    <mxGeometry x="-0.9267" width="50" height="50" relative="1" as="geometry">
                        <mxPoint x="40" y="1590" as="sourcePoint"/>
                        <mxPoint x="-370" y="1670" as="targetPoint"/>
                        <Array as="points">
                            <mxPoint x="60" y="1593"/>
                            <mxPoint x="60" y="1730"/>
                            <mxPoint x="-370" y="1730"/>
                        </Array>
                        <mxPoint as="offset"/>
                    </mxGeometry>
                </mxCell>
                <mxCell id="71" value="index++" style="rounded=0;whiteSpace=wrap;html=1;" parent="1" vertex="1">
                    <mxGeometry x="-450" y="1380" width="120" height="60" as="geometry"/>
                </mxCell>
                <mxCell id="73" value="" style="endArrow=classic;html=1;exitX=0.5;exitY=0;exitDx=0;exitDy=0;" parent="1" source="71" edge="1">
                    <mxGeometry width="50" height="50" relative="1" as="geometry">
                        <mxPoint x="-360" y="1350" as="sourcePoint"/>
                        <mxPoint x="50" y="1210" as="targetPoint"/>
                        <Array as="points">
                            <mxPoint x="-390" y="1210"/>
                        </Array>
                    </mxGeometry>
                </mxCell>
                <mxCell id="74" value="No" style="endArrow=classic;html=1;exitX=1;exitY=0.5;exitDx=0;exitDy=0;entryX=0.5;entryY=0;entryDx=0;entryDy=0;" parent="1" source="57" target="75" edge="1">
                    <mxGeometry x="-0.7083" width="50" height="50" relative="1" as="geometry">
                        <mxPoint x="170" y="1220" as="sourcePoint"/>
                        <mxPoint x="200" y="1210" as="targetPoint"/>
                        <Array as="points">
                            <mxPoint x="325" y="1290"/>
                        </Array>
                        <mxPoint as="offset"/>
                    </mxGeometry>
                </mxCell>
                <mxCell id="78" value="Yes" style="edgeStyle=none;html=1;exitX=0;exitY=0.5;exitDx=0;exitDy=0;" parent="1" source="75" target="77" edge="1">
                    <mxGeometry relative="1" as="geometry">
                        <Array as="points">
                            <mxPoint x="170" y="1425"/>
                        </Array>
                    </mxGeometry>
                </mxCell>
                <mxCell id="81" value="No" style="edgeStyle=none;html=1;" parent="1" source="75" target="80" edge="1">
                    <mxGeometry relative="1" as="geometry"/>
                </mxCell>
                <mxCell id="75" value="userArray[N - 2].Length &amp;lt;= 3" style="rhombus;whiteSpace=wrap;html=1;" parent="1" vertex="1">
                    <mxGeometry x="230" y="1330" width="190" height="190" as="geometry"/>
                </mxCell>
                <mxCell id="77" value="total++" style="rounded=0;whiteSpace=wrap;html=1;" parent="1" vertex="1">
                    <mxGeometry x="110" y="1550" width="120" height="60" as="geometry"/>
                </mxCell>
                <mxCell id="84" value="" style="edgeStyle=none;html=1;" parent="1" source="80" target="83" edge="1">
                    <mxGeometry relative="1" as="geometry"/>
                </mxCell>
                <mxCell id="80" value="print(userArray[N - 2]&quot;])" style="shape=document;whiteSpace=wrap;html=1;boundedLbl=1;" parent="1" vertex="1">
                    <mxGeometry x="506" y="1385" width="150" height="80" as="geometry"/>
                </mxCell>
                <mxCell id="82" value="" style="endArrow=classic;html=1;exitX=1;exitY=0.5;exitDx=0;exitDy=0;" parent="1" source="77" edge="1">
                    <mxGeometry width="50" height="50" relative="1" as="geometry">
                        <mxPoint x="266" y="1630" as="sourcePoint"/>
                        <mxPoint x="446" y="1430" as="targetPoint"/>
                        <Array as="points">
                            <mxPoint x="446" y="1580"/>
                        </Array>
                    </mxGeometry>
                </mxCell>
                <mxCell id="86" value="" style="edgeStyle=none;html=1;" parent="1" source="83" target="85" edge="1">
                    <mxGeometry relative="1" as="geometry"/>
                </mxCell>
                <mxCell id="83" value="solveArray[total]&lt;br&gt;index = 0" style="whiteSpace=wrap;html=1;" parent="1" vertex="1">
                    <mxGeometry x="521" y="1490" width="120" height="60" as="geometry"/>
                </mxCell>
                <mxCell id="88" value="Yes" style="edgeStyle=none;html=1;exitX=0;exitY=0.5;exitDx=0;exitDy=0;" parent="1" source="85" target="87" edge="1">
                    <mxGeometry x="-0.5652" relative="1" as="geometry">
                        <Array as="points">
                            <mxPoint x="466" y="1690"/>
                        </Array>
                        <mxPoint as="offset"/>
                    </mxGeometry>
                </mxCell>
                <mxCell id="93" value="No" style="edgeStyle=none;html=1;" parent="1" source="85" target="91" edge="1">
                    <mxGeometry x="-0.6889" relative="1" as="geometry">
                        <Array as="points">
                            <mxPoint x="691" y="1690"/>
                        </Array>
                        <mxPoint as="offset"/>
                    </mxGeometry>
                </mxCell>
                <mxCell id="85" value="index &amp;lt; N - 1" style="rhombus;whiteSpace=wrap;html=1;" parent="1" vertex="1">
                    <mxGeometry x="531" y="1640" width="100" height="100" as="geometry"/>
                </mxCell>
                <mxCell id="90" value="Yes" style="edgeStyle=none;html=1;exitX=1;exitY=0.5;exitDx=0;exitDy=0;" parent="1" source="87" target="89" edge="1">
                    <mxGeometry relative="1" as="geometry">
                        <mxPoint x="576" y="1870" as="sourcePoint"/>
                    </mxGeometry>
                </mxCell>
                <mxCell id="87" value="userArray[index].Length &amp;lt;= 3" style="rhombus;whiteSpace=wrap;html=1;" parent="1" vertex="1">
                    <mxGeometry x="376" y="1740" width="180" height="180" as="geometry"/>
                </mxCell>
                <mxCell id="89" value="&lt;div&gt;solveArray[count] = userArray[index]&lt;/div&gt;&lt;div&gt;count++&lt;/div&gt;" style="whiteSpace=wrap;html=1;align=center;" parent="1" vertex="1">
                    <mxGeometry x="606" y="1800" width="240" height="60" as="geometry"/>
                </mxCell>
                <mxCell id="97" value="" style="edgeStyle=none;html=1;" parent="1" source="91" target="96" edge="1">
                    <mxGeometry relative="1" as="geometry">
                        <Array as="points">
                            <mxPoint x="1046" y="1690"/>
                        </Array>
                    </mxGeometry>
                </mxCell>
                <mxCell id="91" value="print(Ответ -&amp;gt; [)" style="shape=document;whiteSpace=wrap;html=1;boundedLbl=1;" parent="1" vertex="1">
                    <mxGeometry x="786" y="1650" width="120" height="80" as="geometry"/>
                </mxCell>
                <mxCell id="94" value="No" style="endArrow=classic;html=1;exitX=0;exitY=0.5;exitDx=0;exitDy=0;" parent="1" source="87" target="117" edge="1">
                    <mxGeometry x="-0.7447" width="50" height="50" relative="1" as="geometry">
                        <mxPoint x="276" y="1820" as="sourcePoint"/>
                        <mxPoint x="576" y="1620" as="targetPoint"/>
                        <Array as="points">
                            <mxPoint x="346" y="1830"/>
                            <mxPoint x="346" y="1740"/>
                        </Array>
                        <mxPoint as="offset"/>
                    </mxGeometry>
                </mxCell>
                <mxCell id="95" value="" style="endArrow=classic;html=1;exitX=0.5;exitY=1;exitDx=0;exitDy=0;" parent="1" source="89" edge="1">
                    <mxGeometry width="50" height="50" relative="1" as="geometry">
                        <mxPoint x="646" y="1740" as="sourcePoint"/>
                        <mxPoint x="346" y="1840" as="targetPoint"/>
                        <Array as="points">
                            <mxPoint x="726" y="1940"/>
                            <mxPoint x="346" y="1940"/>
                        </Array>
                    </mxGeometry>
                </mxCell>
                <mxCell id="99" value="Yes" style="edgeStyle=none;html=1;" parent="1" source="96" target="98" edge="1">
                    <mxGeometry relative="1" as="geometry">
                        <Array as="points">
                            <mxPoint x="936" y="1770"/>
                        </Array>
                    </mxGeometry>
                </mxCell>
                <mxCell id="96" value="count &amp;gt; 0" style="rhombus;whiteSpace=wrap;html=1;" parent="1" vertex="1">
                    <mxGeometry x="1006" y="1730" width="80" height="80" as="geometry"/>
                </mxCell>
                <mxCell id="101" value="" style="edgeStyle=none;html=1;" parent="1" source="98" target="100" edge="1">
                    <mxGeometry relative="1" as="geometry"/>
                </mxCell>
                <mxCell id="98" value="print(&quot;solveArray[0]&quot;)" style="shape=document;whiteSpace=wrap;html=1;boundedLbl=1;" parent="1" vertex="1">
                    <mxGeometry x="876" y="1810" width="120" height="80" as="geometry"/>
                </mxCell>
                <mxCell id="104" value="Yes" style="edgeStyle=none;html=1;entryX=0.5;entryY=0;entryDx=0;entryDy=0;" parent="1" source="100" target="105" edge="1">
                    <mxGeometry x="-0.3333" relative="1" as="geometry">
                        <mxPoint x="846" y="2050" as="targetPoint"/>
                        <Array as="points">
                            <mxPoint x="846" y="2010"/>
                        </Array>
                        <mxPoint x="1" as="offset"/>
                    </mxGeometry>
                </mxCell>
                <mxCell id="111" value="No" style="edgeStyle=none;html=1;" parent="1" source="100" target="110" edge="1">
                    <mxGeometry relative="1" as="geometry"/>
                </mxCell>
                <mxCell id="100" value="&lt;span&gt;count &amp;gt; 1&lt;/span&gt;" style="rhombus;whiteSpace=wrap;html=1;" parent="1" vertex="1">
                    <mxGeometry x="896" y="1970" width="80" height="80" as="geometry"/>
                </mxCell>
                <mxCell id="102" value="No" style="endArrow=classic;html=1;exitX=1;exitY=0.5;exitDx=0;exitDy=0;" parent="1" source="96" edge="1">
                    <mxGeometry x="-0.8235" width="50" height="50" relative="1" as="geometry">
                        <mxPoint x="1106" y="1770" as="sourcePoint"/>
                        <mxPoint x="946" y="1910" as="targetPoint"/>
                        <Array as="points">
                            <mxPoint x="1116" y="1770"/>
                            <mxPoint x="1116" y="1910"/>
                        </Array>
                        <mxPoint y="-1" as="offset"/>
                    </mxGeometry>
                </mxCell>
                <mxCell id="107" value="" style="edgeStyle=none;html=1;" parent="1" source="105" target="106" edge="1">
                    <mxGeometry relative="1" as="geometry"/>
                </mxCell>
                <mxCell id="105" value="index = 1" style="rounded=0;whiteSpace=wrap;html=1;" parent="1" vertex="1">
                    <mxGeometry x="806" y="2060" width="80" height="40" as="geometry"/>
                </mxCell>
                <mxCell id="109" value="Yes" style="edgeStyle=none;html=1;" parent="1" source="106" target="108" edge="1">
                    <mxGeometry relative="1" as="geometry"/>
                </mxCell>
                <mxCell id="106" value="index &amp;lt; count" style="rhombus;whiteSpace=wrap;html=1;" parent="1" vertex="1">
                    <mxGeometry x="796" y="2190" width="100" height="100" as="geometry"/>
                </mxCell>
                <mxCell id="114" value="" style="edgeStyle=none;html=1;" parent="1" source="108" target="113" edge="1">
                    <mxGeometry relative="1" as="geometry"/>
                </mxCell>
                <mxCell id="108" value="print(, &quot;solveArray[index]&quot;)" style="shape=document;whiteSpace=wrap;html=1;boundedLbl=1;" parent="1" vertex="1">
                    <mxGeometry x="576" y="2200" width="160" height="80" as="geometry"/>
                </mxCell>
                <mxCell id="110" value="print(])" style="shape=document;whiteSpace=wrap;html=1;boundedLbl=1;fillColor=#0050ef;fontColor=#ffffff;strokeColor=#001DBC;" parent="1" vertex="1">
                    <mxGeometry x="1036" y="1970" width="120" height="80" as="geometry"/>
                </mxCell>
                <mxCell id="112" value="" style="endArrow=classic;html=1;exitX=1;exitY=0.5;exitDx=0;exitDy=0;" parent="1" source="106" edge="1">
                    <mxGeometry width="50" height="50" relative="1" as="geometry">
                        <mxPoint x="936" y="2190" as="sourcePoint"/>
                        <mxPoint x="1006" y="2020" as="targetPoint"/>
                        <Array as="points">
                            <mxPoint x="1006" y="2240"/>
                        </Array>
                    </mxGeometry>
                </mxCell>
                <mxCell id="116" value="No" style="edgeLabel;html=1;align=center;verticalAlign=middle;resizable=0;points=[];" parent="112" vertex="1" connectable="0">
                    <mxGeometry x="-0.8812" y="-2" relative="1" as="geometry">
                        <mxPoint as="offset"/>
                    </mxGeometry>
                </mxCell>
                <mxCell id="115" value="" style="edgeStyle=none;html=1;" parent="1" source="113" edge="1">
                    <mxGeometry relative="1" as="geometry">
                        <mxPoint x="836" y="2130" as="targetPoint"/>
                    </mxGeometry>
                </mxCell>
                <mxCell id="113" value="index++" style="whiteSpace=wrap;html=1;" parent="1" vertex="1">
                    <mxGeometry x="596" y="2100" width="120" height="60" as="geometry"/>
                </mxCell>
                <mxCell id="117" value="index++" style="rounded=0;whiteSpace=wrap;html=1;" parent="1" vertex="1">
                    <mxGeometry x="286" y="1650" width="120" height="60" as="geometry"/>
                </mxCell>
                <mxCell id="118" value="" style="endArrow=classic;html=1;exitX=0.5;exitY=0;exitDx=0;exitDy=0;" parent="1" source="117" edge="1">
                    <mxGeometry width="50" height="50" relative="1" as="geometry">
                        <mxPoint x="756" y="1840" as="sourcePoint"/>
                        <mxPoint x="576" y="1610" as="targetPoint"/>
                        <Array as="points">
                            <mxPoint x="346" y="1610"/>
                        </Array>
                    </mxGeometry>
                </mxCell>
                <mxCell id="121" value="" style="edgeStyle=none;html=1;" parent="1" source="120" target="57" edge="1">
                    <mxGeometry relative="1" as="geometry"/>
                </mxCell>
                <mxCell id="120" value="index = 0" style="rounded=0;whiteSpace=wrap;html=1;" parent="1" vertex="1">
                    <mxGeometry x="-5" y="1133" width="120" height="60" as="geometry"/>
                </mxCell>
                <mxCell id="124" value="" style="edgeStyle=none;html=1;" parent="1" source="122" target="17" edge="1">
                    <mxGeometry relative="1" as="geometry"/>
                </mxCell>
                <mxCell id="122" value="int i = 0" style="rounded=0;whiteSpace=wrap;html=1;" parent="1" vertex="1">
                    <mxGeometry x="360" y="540" width="120" height="60" as="geometry"/>
                </mxCell>
                <mxCell id="127" value="" style="edgeStyle=none;html=1;" parent="1" source="125" target="5" edge="1">
                    <mxGeometry relative="1" as="geometry"/>
                </mxCell>
                <mxCell id="125" value="print(&lt;span&gt;Приветствую! Эта программа покажет значения из массива строк, которые имеют длину меньше либо равному 3 символа.&lt;/span&gt;&lt;div&gt;Первоначальный массив вводится с клавиатуры.&lt;/div&gt;&lt;span&gt;Программа написана без использования коллекций.&lt;/span&gt;)" style="shape=document;whiteSpace=wrap;html=1;boundedLbl=1;" parent="1" vertex="1">
                    <mxGeometry x="135" y="140" width="570" height="100" as="geometry"/>
                </mxCell>
                <mxCell id="128" value="" style="endArrow=classic;html=1;exitX=1;exitY=0.5;exitDx=0;exitDy=0;entryX=0;entryY=0.5;entryDx=0;entryDy=0;strokeWidth=5;strokeColor=#005700;fillColor=#008a00;" parent="1" source="110" target="133" edge="1">
                    <mxGeometry width="50" height="50" relative="1" as="geometry">
                        <mxPoint x="1170" y="1470" as="sourcePoint"/>
                        <mxPoint x="1540" y="780" as="targetPoint"/>
                        <Array as="points">
                            <mxPoint x="1320" y="2010"/>
                            <mxPoint x="1310" y="340"/>
                        </Array>
                    </mxGeometry>
                </mxCell>
                <mxCell id="129" value="" style="endArrow=classic;html=1;exitX=1;exitY=0.5;exitDx=0;exitDy=0;strokeWidth=5;fillColor=#008a00;strokeColor=#005700;" parent="1" source="22" edge="1">
                    <mxGeometry width="50" height="50" relative="1" as="geometry">
                        <mxPoint x="1180" y="1190" as="sourcePoint"/>
                        <mxPoint x="1300" y="1068" as="targetPoint"/>
                    </mxGeometry>
                </mxCell>
                <mxCell id="131" value="&lt;div style=&quot;font-family: consolas, &amp;quot;courier new&amp;quot;, monospace; line-height: 16px;&quot;&gt;&lt;span style=&quot;font-size: 120px&quot;&gt;&lt;font&gt;userData&lt;/font&gt;&lt;/span&gt;&lt;/div&gt;" style="text;html=1;align=center;verticalAlign=middle;whiteSpace=wrap;rounded=0;fillColor=none;fontColor=default;labelBorderColor=none;labelBackgroundColor=none;" parent="1" vertex="1">
                    <mxGeometry x="-465" y="270" width="600" height="410" as="geometry"/>
                </mxCell>
                <mxCell id="138" value="" style="edgeStyle=none;html=1;fontSize=12;fontColor=#D2C5CD;" parent="1" source="133" target="137" edge="1">
                    <mxGeometry relative="1" as="geometry"/>
                </mxCell>
                <mxCell id="133" value="print(Вы хотите продолжить работу с программой? Да - Y, Нет - N&quot;)" style="shape=document;whiteSpace=wrap;html=1;boundedLbl=1;fontSize=12;fontColor=default;" parent="1" vertex="1">
                    <mxGeometry x="1620" y="300" width="240" height="80" as="geometry"/>
                </mxCell>
                <mxCell id="141" value="Yes" style="edgeStyle=none;html=1;fontSize=12;fontColor=default;" parent="1" source="134" target="140" edge="1">
                    <mxGeometry relative="1" as="geometry"/>
                </mxCell>
                <mxCell id="144" value="No" style="edgeStyle=none;html=1;fontSize=12;fontColor=default;" parent="1" source="134" target="143" edge="1">
                    <mxGeometry x="-0.6582" relative="1" as="geometry">
                        <Array as="points">
                            <mxPoint x="1958" y="605"/>
                        </Array>
                        <mxPoint as="offset"/>
                    </mxGeometry>
                </mxCell>
                <mxCell id="134" value="userChoice.ToLower() != &quot;y&quot; &lt;br&gt;&amp;amp;&amp;amp; &lt;br&gt;userChoice.ToLower() != &quot;n&quot;" style="rhombus;whiteSpace=wrap;html=1;fontColor=default;" parent="1" vertex="1">
                    <mxGeometry x="1625" y="490" width="230" height="230" as="geometry"/>
                </mxCell>
                <mxCell id="139" value="" style="edgeStyle=none;html=1;fontSize=12;fontColor=#D2C5CD;" parent="1" source="137" target="134" edge="1">
                    <mxGeometry relative="1" as="geometry"/>
                </mxCell>
                <mxCell id="137" value="Ввод &lt;br&gt;string userChoice" style="shape=parallelogram;perimeter=parallelogramPerimeter;whiteSpace=wrap;html=1;fixedSize=1;fontSize=12;fontColor=default;" parent="1" vertex="1">
                    <mxGeometry x="1670" y="403" width="140" height="60" as="geometry"/>
                </mxCell>
                <mxCell id="140" value="print(Пожалуйста, введите верное решение. Если хотите продолжить работу - введите Y, если желаете закрыть программу - введите N)" style="shape=document;whiteSpace=wrap;html=1;boundedLbl=1;fontColor=default;" parent="1" vertex="1">
                    <mxGeometry x="1360" y="535" width="210" height="140" as="geometry"/>
                </mxCell>
                <mxCell id="142" value="" style="endArrow=classic;html=1;fontSize=12;fontColor=default;exitX=0.5;exitY=0;exitDx=0;exitDy=0;" parent="1" source="140" edge="1">
                    <mxGeometry width="50" height="50" relative="1" as="geometry">
                        <mxPoint x="1460" y="540" as="sourcePoint"/>
                        <mxPoint x="1730" y="390" as="targetPoint"/>
                        <Array as="points">
                            <mxPoint x="1465" y="390"/>
                        </Array>
                    </mxGeometry>
                </mxCell>
                <mxCell id="147" value="No" style="edgeStyle=none;html=1;fontSize=12;fontColor=default;" parent="1" source="143" target="146" edge="1">
                    <mxGeometry relative="1" as="geometry"/>
                </mxCell>
                <mxCell id="143" value="userChoice.ToLower() == &quot;y&quot;" style="rhombus;whiteSpace=wrap;html=1;fontColor=default;fillColor=#0050ef;strokeColor=#001DBC;" parent="1" vertex="1">
                    <mxGeometry x="1840" y="685" width="235" height="235" as="geometry"/>
                </mxCell>
                <mxCell id="145" value="Yes" style="endArrow=classic;html=1;fontSize=12;fontColor=default;exitX=1;exitY=0.5;exitDx=0;exitDy=0;strokeWidth=5;strokeColor=#005700;fillColor=#008a00;" parent="1" source="143" edge="1">
                    <mxGeometry x="-0.9689" width="50" height="50" relative="1" as="geometry">
                        <mxPoint x="2180" y="1243" as="sourcePoint"/>
                        <mxPoint x="420" y="250" as="targetPoint"/>
                        <Array as="points">
                            <mxPoint x="2160" y="803"/>
                            <mxPoint x="2160" y="260"/>
                        </Array>
                        <mxPoint as="offset"/>
                    </mxGeometry>
                </mxCell>
                <mxCell id="149" value="" style="edgeStyle=none;html=1;fontSize=12;fontColor=#D2C5CD;" parent="1" source="146" target="148" edge="1">
                    <mxGeometry relative="1" as="geometry"/>
                </mxCell>
                <mxCell id="146" value="print(Bye!)" style="shape=document;whiteSpace=wrap;html=1;boundedLbl=1;fontSize=12;fontColor=default;" parent="1" vertex="1">
                    <mxGeometry x="1660" y="762.5" width="120" height="80" as="geometry"/>
                </mxCell>
                <mxCell id="148" value="Конец" style="rounded=1;whiteSpace=wrap;html=1;fontColor=default;fillColor=#008a00;strokeColor=#005700;" parent="1" vertex="1">
                    <mxGeometry x="1660" y="890" width="120" height="60" as="geometry"/>
                </mxCell>
                <mxCell id="151" value="&lt;div style=&quot;font-family: consolas, &amp;quot;courier new&amp;quot;, monospace; line-height: 16px;&quot;&gt;&lt;font style=&quot;font-size: 120px&quot;&gt;userAnotherTry&lt;/font&gt;&lt;/div&gt;" style="text;html=1;align=center;verticalAlign=middle;whiteSpace=wrap;rounded=0;fontSize=12;fillColor=#030303;gradientColor=none;fontColor=default;labelBackgroundColor=default;labelBorderColor=none;" parent="1" vertex="1">
                    <mxGeometry x="2720" y="403" width="60" height="30" as="geometry"/>
                </mxCell>
            </root>
        </mxGraphModel>
    </diagram>
</mxfile>